<?xml version="1.0" standalone="no"?>
<!DOCTYPE svg PUBLIC "-//W3C//DTD SVG 20010904//EN"
 "http://www.w3.org/TR/2001/REC-SVG-20010904/DTD/svg10.dtd">
<svg version="1.0" xmlns="http://www.w3.org/2000/svg"
 width="1024.000000pt" height="1024.000000pt" viewBox="0 0 1024.000000 1024.000000"
 preserveAspectRatio="xMidYMid meet">
<metadata>
Created by potrace 1.11, written by Peter Selinger 2001-2013
</metadata>
<g transform="translate(0.000000,1024.000000) scale(0.100000,-0.100000)"
fill="#000000" stroke="none">
<path d="M121 9947 c-44 -22 -87 -70 -107 -117 -22 -51 -12 -177 21 -275 67
-200 229 -358 448 -436 20 -7 37 -18 37 -24 5 -118 11 -230 15 -270 2 -27 7
-77 10 -110 7 -69 7 -71 35 -233 17 -100 41 -204 95 -412 20 -79 107 -317 158
-435 48 -112 180 -367 244 -472 64 -107 213 -326 250 -371 10 -11 36 -44 58
-72 22 -29 53 -66 68 -83 59 -66 62 -74 38 -99 -114 -124 -344 -444 -450 -628
-68 -119 -200 -391 -248 -515 -170 -428 -263 -883 -267 -1305 -1 -169 4 -191
62 -245 44 -43 83 -58 147 -58 72 -1 131 26 170 77 37 48 45 84 50 232 2 72 7
154 10 183 3 28 7 74 10 103 5 45 24 165 40 253 15 80 50 220 81 324 126 415
331 806 610 1162 91 116 112 137 122 123 9 -12 126 -112 227 -195 545 -444
1255 -779 1975 -934 196 -42 204 -44 250 -50 81 -12 94 -14 170 -24 41 -6 98
-13 125 -16 28 -2 70 -7 95 -9 205 -24 752 -24 890 -2 14 2 57 7 95 10 39 4
85 9 103 11 81 10 120 16 167 25 28 5 68 12 90 15 22 3 82 15 135 26 52 11
106 22 120 25 14 3 33 7 42 10 9 3 25 7 35 9 67 15 231 63 363 106 601 199
1178 527 1629 928 l84 75 26 -30 c63 -73 79 -92 122 -149 280 -369 491 -798
604 -1230 33 -126 38 -149 51 -225 3 -19 8 -38 9 -41 2 -3 7 -28 10 -55 4 -27
8 -60 11 -74 2 -14 6 -52 9 -85 3 -33 8 -75 11 -94 2 -18 7 -98 9 -177 3 -80
10 -157 16 -172 29 -77 106 -132 189 -137 86 -4 157 35 202 110 21 36 23 51
22 165 0 120 -10 298 -18 350 -4 23 -17 123 -22 160 -5 44 -48 258 -69 341
-42 164 -128 426 -182 549 -164 373 -369 711 -608 1000 -38 47 -73 87 -78 88
-15 7 -6 25 41 80 26 31 54 65 62 75 8 11 22 27 31 36 27 28 193 263 251 356
51 81 188 322 188 330 0 1 23 51 51 111 139 295 231 584 294 919 23 125 31
178 40 275 3 25 7 68 10 95 5 39 11 161 15 272 0 6 17 17 38 23 213 66 393
248 457 460 23 77 30 190 15 237 -53 161 -264 204 -371 74 -31 -38 -45 -78
-52 -152 -8 -85 -63 -154 -156 -197 -81 -38 -202 -38 -282 -1 -98 46 -159 133
-159 228 -1 103 -104 201 -210 201 -79 0 -147 -39 -188 -110 -60 -101 -20
-317 87 -474 65 -97 202 -202 324 -252 l68 -26 -6 -97 c-6 -119 -17 -238 -29
-336 -8 -60 -27 -169 -30 -174 -2 -3 -7 -24 -10 -46 -30 -190 -153 -548 -271
-790 -131 -270 -346 -598 -497 -760 l-27 -30 -48 46 c-94 90 -297 250 -475
374 -285 199 -731 425 -1088 551 l-65 22 -5 669 c-6 739 -1 693 -72 760 -110
104 -304 55 -347 -88 -9 -31 -12 -191 -12 -625 0 -371 -3 -584 -10 -584 -5 0
-51 9 -102 20 -50 11 -105 22 -122 25 -16 2 -41 7 -55 10 -34 7 -148 25 -185
30 -16 2 -48 6 -70 9 -22 4 -69 9 -105 12 -36 2 -78 7 -95 9 -68 10 -301 19
-462 18 -263 -1 -525 -20 -723 -53 -30 -5 -75 -12 -100 -15 -25 -4 -63 -10
-85 -15 -22 -5 -55 -11 -73 -15 -18 -3 -64 -12 -103 -20 -39 -8 -74 -15 -79
-15 -5 0 -9 264 -9 593 0 656 2 632 -66 700 -78 78 -200 83 -285 10 -80 -69
-74 -18 -80 -767 l-5 -668 -90 -32 c-259 -93 -608 -259 -835 -396 -127 -77
-318 -205 -385 -257 -16 -13 -34 -27 -40 -31 -35 -26 -101 -77 -105 -82 -3 -3
-17 -15 -32 -27 -15 -11 -62 -51 -104 -89 -42 -38 -79 -70 -84 -72 -9 -3 -76
76 -172 203 -213 284 -386 608 -505 943 -41 116 -115 383 -128 464 -3 18 -10
56 -15 83 -30 157 -58 508 -42 531 4 5 30 18 57 28 104 38 199 108 312 231 21
22 81 138 98 189 22 65 25 79 30 166 4 64 1 83 -19 125 -60 129 -220 164 -331
73 -47 -40 -66 -78 -76 -160 -5 -37 -15 -81 -23 -96 -59 -115 -231 -178 -372
-137 -120 34 -192 115 -202 225 -6 70 -35 133 -79 169 -64 53 -161 65 -232 28z
m5270 -2251 c68 -4 138 -9 154 -11 17 -2 57 -7 90 -10 59 -6 231 -30 290 -40
632 -116 1199 -342 1703 -679 198 -132 493 -369 492 -394 -1 -12 -243 -211
-352 -290 -303 -219 -639 -405 -953 -524 -44 -17 -93 -36 -110 -43 -93 -39
-467 -149 -545 -161 -19 -3 -48 -9 -65 -14 -16 -5 -46 -12 -65 -15 -19 -3 -48
-8 -65 -12 -16 -3 -39 -7 -50 -9 -35 -5 -99 -15 -125 -19 -14 -3 -47 -8 -75
-11 -27 -3 -61 -7 -75 -9 -22 -3 -108 -10 -238 -21 -60 -4 -514 -5 -567 0 -22
2 -78 7 -125 11 -88 7 -105 9 -180 19 -145 20 -203 29 -270 43 -41 8 -88 17
-105 20 -16 2 -97 22 -180 43 -537 137 -1023 361 -1475 681 -68 48 -194 148
-300 238 -41 36 -77 67 -80 69 -15 12 268 245 455 374 208 144 500 303 735
402 63 27 129 55 146 62 125 55 620 198 754 218 19 3 46 8 60 11 44 10 283 45
345 51 33 3 71 7 84 9 13 2 83 7 155 11 72 3 132 7 133 7 4 4 293 -1 404 -7z"/>
<path d="M1368 2944 c-2 -1 -21 -5 -43 -8 -22 -3 -47 -7 -55 -9 -8 -2 -31 -7
-50 -11 -84 -18 -233 -73 -335 -124 -395 -197 -613 -497 -669 -922 -10 -72 -8
-279 4 -360 60 -431 294 -748 695 -944 215 -106 350 -139 565 -140 174 -1 340
35 521 112 65 28 219 125 248 156 23 25 24 29 12 64 -18 49 -89 159 -130 199
-31 32 -33 32 -66 19 -19 -8 -62 -33 -95 -56 -89 -60 -210 -110 -305 -126
-109 -17 -138 -20 -206 -18 -98 3 -171 14 -254 40 -314 98 -536 319 -613 610
-74 279 -30 557 123 789 101 152 297 284 522 351 77 23 107 27 233 27 211 1
320 -28 482 -129 143 -89 141 -89 205 -20 64 69 98 120 111 169 9 31 7 39 -11
59 -26 28 -180 124 -250 156 -66 31 -215 79 -307 98 -61 14 -322 28 -332 18z"/>
<path d="M3096 2923 c-1 -1 -40 -3 -86 -4 -120 -3 -148 -12 -158 -51 -4 -17
-8 -552 -7 -1187 0 -905 3 -1161 13 -1178 16 -28 61 -37 177 -36 117 1 142 11
151 60 4 21 7 187 8 369 l0 332 327 0 c180 0 374 3 432 7 l104 7 53 -128 c29
-70 56 -135 60 -143 5 -9 54 -124 110 -256 56 -132 109 -248 118 -259 14 -15
26 -17 66 -12 54 6 201 73 230 105 18 19 18 23 2 73 -16 49 -88 223 -122 293
-8 17 -59 133 -112 259 l-98 229 73 75 c82 83 117 130 160 217 58 114 77 210
78 375 0 200 -35 323 -136 480 -108 167 -330 310 -549 355 -65 13 -156 17
-486 18 -223 1 -407 1 -408 0z m863 -368 c115 -33 234 -116 296 -205 93 -134
103 -367 21 -515 -72 -131 -203 -223 -354 -248 -53 -9 -623 -15 -718 -8 -7 1
-10 152 -10 494 l0 492 51 5 c27 3 187 4 354 3 244 -2 315 -6 360 -18z"/>
<path d="M8222 2917 c-43 -7 -55 -13 -63 -34 -10 -27 -13 -2310 -3 -2361 11
-55 14 -55 649 -57 319 -1 600 2 625 7 25 5 55 10 68 13 42 7 67 17 142 53
101 50 239 185 297 292 71 129 88 202 88 370 -1 131 -3 152 -28 223 -36 102
-72 165 -157 270 l-71 88 59 92 c68 106 87 147 108 235 14 62 20 210 9 263
-50 254 -244 466 -490 535 -52 14 -131 17 -620 18 -308 1 -584 -2 -613 -7z
m1088 -349 c8 -3 31 -8 50 -12 150 -35 242 -158 243 -325 0 -173 -46 -271
-149 -321 -45 -22 -52 -22 -495 -22 -247 0 -452 2 -455 5 -5 4 -7 397 -5 627
l1 55 398 -1 c218 -2 404 -4 412 -6z m218 -987 c82 -52 127 -127 148 -241 7
-39 7 -174 0 -205 -21 -97 -53 -162 -106 -215 -39 -39 -118 -82 -175 -96 -16
-4 -225 -9 -462 -10 l-433 -3 0 32 c-1 168 -1 529 -1 637 l1 135 488 0 488 -1
52 -33z"/>
<path d="M6285 2889 c-46 -29 -39 -18 -233 -419 -113 -234 -200 -416 -297
-615 -48 -99 -109 -225 -135 -280 -26 -55 -85 -176 -130 -270 -313 -645 -330
-681 -336 -714 -5 -23 -1 -34 21 -53 63 -56 215 -121 250 -108 35 13 43 28
215 385 61 126 112 231 114 232 3 3 759 5 1199 3 l58 0 81 -168 c44 -92 108
-226 142 -297 75 -156 86 -169 135 -160 48 9 169 69 213 105 51 43 71 -10
-234 620 -44 91 -102 210 -128 265 -26 55 -92 190 -145 300 -54 110 -130 268
-170 350 -40 83 -106 220 -147 305 -42 85 -108 223 -148 305 -80 167 -107 208
-151 230 -45 24 -122 17 -174 -16z m204 -771 c60 -123 174 -357 255 -522 80
-164 146 -300 146 -302 0 -2 -230 -4 -511 -4 l-510 0 20 38 c11 20 48 94 81
165 70 148 140 295 272 568 52 107 103 214 113 237 11 23 20 42 22 42 2 0 52
-100 112 -222z"/>
</g>
</svg>
