<?xml version="1.0" standalone="no"?>
<!DOCTYPE svg PUBLIC "-//W3C//DTD SVG 20010904//EN"
 "http://www.w3.org/TR/2001/REC-SVG-20010904/DTD/svg10.dtd">
<svg version="1.0" xmlns="http://www.w3.org/2000/svg"
 width="1024.000000pt" height="1024.000000pt" viewBox="0 0 1024.000000 1024.000000"
 preserveAspectRatio="xMidYMid meet">
<metadata>
Created by potrace 1.11, written by Peter Selinger 2001-2013
</metadata>
<g transform="translate(0.000000,1024.000000) scale(0.100000,-0.100000)"
fill="#000000" stroke="none">
<path d="M0 9600 l0 -640 569 0 c506 0 570 2 575 16 8 20 7 1212 0 1242 l-6
22 -569 0 -569 0 0 -640z"/>
<path d="M4627 10218 c-8 -29 -8 -1225 0 -1244 4 -12 91 -14 573 -14 l567 0 6
58 c4 48 3 1047 -2 1180 l-1 42 -569 0 -569 0 -5 -22z"/>
<path d="M7460 9600 l0 -640 1230 0 1230 0 0 640 0 640 -1230 0 -1230 0 0
-640z"/>
<path d="M1265 6409 c-187 -28 -369 -105 -482 -201 -123 -104 -216 -251 -259
-408 -25 -90 -26 -342 -2 -416 33 -104 72 -168 148 -244 129 -130 261 -181
781 -300 431 -99 577 -150 676 -235 112 -96 144 -317 70 -478 -90 -196 -415
-315 -780 -286 -144 12 -225 32 -327 81 -191 92 -305 267 -327 504 l-6 64
-175 0 -175 0 6 -107 c17 -298 151 -529 400 -691 342 -223 950 -231 1377 -17
208 105 314 225 376 430 24 81 27 106 28 245 1 177 -8 226 -64 345 -78 167
-206 272 -426 353 -43 16 -229 64 -413 107 -623 143 -734 188 -799 319 -76
152 -39 340 92 471 116 116 228 150 491 149 152 0 192 -4 260 -22 169 -46 297
-138 358 -258 26 -52 61 -162 72 -226 l6 -38 176 0 176 0 -6 88 c-25 344 -201
572 -541 700 -153 58 -247 74 -461 77 -104 2 -217 0 -250 -6z"/>
<path d="M2840 6195 l0 -165 465 0 465 0 0 -1215 0 -1215 190 0 190 0 0 1215
0 1215 465 0 465 0 0 165 0 165 -1120 0 -1120 0 0 -165z"/>
<path d="M5457 6353 c-4 -3 -7 -624 -7 -1380 l0 -1373 1020 0 1020 0 0 165 0
165 -835 0 -835 0 0 465 0 465 760 0 760 0 0 160 0 160 -760 0 -760 0 0 420 0
420 820 0 820 0 0 170 0 170 -998 0 c-549 0 -1002 -3 -1005 -7z"/>
<path d="M8020 4980 l0 -1380 185 0 185 0 0 625 0 625 675 0 675 0 0 165 0
165 -675 0 -675 0 0 420 0 420 770 0 770 0 -2 168 -3 167 -952 3 -953 2 0
-1380z"/>
<path d="M0 640 l0 -640 569 0 c506 0 570 2 575 16 8 20 7 1212 0 1242 l-6 22
-569 0 -569 0 0 -640z"/>
<path d="M4627 1258 c-8 -29 -8 -1225 0 -1244 4 -12 91 -14 573 -14 l567 0 6
58 c4 48 3 1047 -2 1180 l-1 42 -569 0 -569 0 -5 -22z"/>
<path d="M7460 640 l0 -640 1230 0 1230 0 0 640 0 640 -1230 0 -1230 0 0 -640z"/>
</g>
</svg>
